<svg id="Слой_1" data-name="Слой 1" xmlns="http://www.w3.org/2000/svg" viewBox="0 0 101 101" fill="white"><path stroke="1" d="M64.5,51h-27A1.5,1.5,0,0,0,36,52.5v17A1.5,1.5,0,0,0,37.5,71h27A1.5,1.5,0,0,0,66,69.5v-17A1.5,1.5,0,0,0,64.5,51ZM63,68H39V54H63Z"/><path d="M78.95,51H75V33h2.5A1.5,1.5,0,0,0,79,31.5v-8A11.5,11.5,0,0,0,67.52,12H59A8.49,8.49,0,0,0,42,12H34.48A11.5,11.5,0,0,0,23,23.48v8A1.5,1.5,0,0,0,24.5,33H27V51H22.05A7.06,7.06,0,0,0,15,58.06V85.5A1.5,1.5,0,0,0,16.5,87h68A1.5,1.5,0,0,0,86,85.5V58.06A7.06,7.06,0,0,0,78.95,51ZM50.5,7A5.51,5.51,0,0,1,56,12H45A5.5,5.5,0,0,1,50.5,7ZM26,23.48A8.49,8.49,0,0,1,34.48,15h33A8.49,8.49,0,0,1,76,23.48V30H66V25.5a1.5,1.5,0,0,0-3,0V30H38V25.5a1.5,1.5,0,0,0-3,0V30H26ZM18,58.06A4.06,4.06,0,0,1,22.05,54H27V84H18ZM30,33h5v4.5a1.5,1.5,0,0,0,3,0V33H63v4.5a1.5,1.5,0,0,0,3,0V33h6V84H30ZM83,84H75V54h3.95A4.06,4.06,0,0,1,83,58.06Z"/></svg>