<?xml version="1.0" encoding="UTF-8" standalone="no"?> <svg xmlns="http://www.w3.org/2000/svg" viewBox="0 0 64 64" fill="white"><g id="Outline" ><path stroke="1" d="M57,39.556A4.56,4.56,0,0,0,52.444,35h-.292L32.053,2.171,7.271,37.857,4.892,35.478,1.2,40.4l1.6,1.2,2.308-3.078L13.09,46.5l10.937-13.92L39,50.365v1.079a4.547,4.547,0,0,0,4,4.5V62h2V55.944a4.536,4.536,0,0,0,3.743-3.055A4.512,4.512,0,0,0,51,53.833v6.056h2V53.833a4.511,4.511,0,0,0,4-4.5V46.749l4.147,6.773,1.706-1.044L57,42.918ZM41.369,21.217,41,21.586l-3.293-3.293a1,1,0,0,0-1.414,0L33,21.586l-3.293-3.293a1,1,0,0,0-1.414,0L25,21.586l-2.358-2.358,9.305-13.4Zm-17.4,8.2L12.91,43.5l-4.2-4.2L21.483,20.9l2.81,2.81a1,1,0,0,0,1.414,0L29,20.414l3.293,3.293a1,1,0,0,0,1.414,0L37,20.414l3.293,3.293a1,1,0,0,0,1.414,0l.736-.736L49.988,35.3a4.548,4.548,0,0,0-2.731,2.816,4.511,4.511,0,0,0-2.813-1h-.888A4.561,4.561,0,0,0,39,41.667V47.26ZM47,51.444A2.558,2.558,0,0,1,44.444,54h-.888A2.558,2.558,0,0,1,41,51.444V41.667a2.559,2.559,0,0,1,2.556-2.556h.888A2.559,2.559,0,0,1,47,41.667v9.777Zm8-2.111a2.556,2.556,0,0,1-2.556,2.556h-.888A2.559,2.559,0,0,1,49,49.333V39.556A2.558,2.558,0,0,1,51.556,37h.888A2.558,2.558,0,0,1,55,39.556Z"/></g></svg>

